<?xml version="1.0" encoding="UTF-8"?>
<svg id="Layer_1" data-name="Layer 1" xmlns="http://www.w3.org/2000/svg" viewBox="0 0 599.04 847.21">
  <path class="logo-path" d="M298.37,190.63c-111,0-201,90-201,201s90,201,201,201,201-90,201-201S409.38,190.63,298.37,190.63ZM433.89,469.11a5,5,0,0,1-2.54,4.34l-86.93,49.22a5,5,0,0,1-7.46-4.35V475.5l-36.11,20.83a5,5,0,0,1-5,0,1.6,1.6,0,0,1-.23-.16l-36.89-21.3v41.7a5,5,0,0,1-7.51,4.33l-88-51.11a5,5,0,0,1-2.49-4.37l.84-99.89a5,5,0,0,1,7.5-4.29l37.09,21.42V341a4.59,4.59,0,0,1,.1-1,0,0,0,0,1,0,0,5.36,5.36,0,0,1,.36-1.09,4.51,4.51,0,0,1,.61-1,2.52,2.52,0,0,1,.43-.49,4.26,4.26,0,0,1,1-.74l.3-.16.05,0,36.83-21.26-36.11-20.85a5,5,0,0,1,0-8.67L298,235a5,5,0,0,1,5,0l86.09,50.67a5,5,0,0,1,0,8.64L352,315.78l35.79,20.69.29.16h0a4.93,4.93,0,0,1,.53.36h0l.25.21.22.21,0,0a3.07,3.07,0,0,1,.41.47l0,0a5.8,5.8,0,0,1,.34.52,4.66,4.66,0,0,1,.4.88,4.45,4.45,0,0,1,.29,1.67c0,.14,0,.28,0,.42v42.41L426.64,363a5,5,0,0,1,7.5,4.34Z M424.12,375.99l-.22,90.19-76.94,43.56V420.54l39.87-23.02,1.2-.7,36.09-20.83z M380.53,349.64v40l-39.86,23-1.22.7a4.65,4.65,0,0,0-1,.82q-.18.18-.33.36a4.94,4.94,0,0,0-1.14,3.16V464l-33.58,19.37V394.2l10.39-6Z M376.61,290,299.36,334.6l-39.87-23-37.29-21.53,78.22-44.9L376.61,290z M375.54,341l-77.19,44.58L221.17,341l34.61-20,39.85,23,1.22.71a5,5,0,0,0,5,0L342,321.56Z M248.73,418.79v89.1l-77.99-45.29.74-88.41L248.73,418.79z M293.35,394.2v89.11l-34.61-20V415.91a5,5,0,0,0-2.5-4.35L216.14,388.4V349.64l68.66,39.63Z"/>
</svg>